<?xml version="1.0" encoding="UTF-8"?>
<svg width="19px" height="19px" viewBox="0 0 19 19" version="1.1" xmlns="http://www.w3.org/2000/svg" xmlns:xlink="http://www.w3.org/1999/xlink">
    <title>Group 14</title>
    <g id="Page-1" stroke="none" stroke-width="1" fill="none" fill-rule="evenodd">
        <g id="Group-14" transform="translate(1.000000, 1.000000)" stroke="#FF0000">
            <g id="Group-13" transform="translate(0.000000, 7.000000)">
                <line x1="0.333333333" y1="9.66666667" x2="4.33333333" y2="5.66666667" id="Line-3" stroke-width="2" stroke-linecap="round"></line>
                <line x1="3.66666667" y1="0.333333333" x2="9.66666667" y2="6.33333333" id="Line-4" stroke-width="2" stroke-linecap="round"></line>
                <path d="M4.28162134,1.48469416 L8.51577176,5.71742203 C8.27767716,6.20652581 7.91729246,6.62510628 7.47455032,6.93359926 C6.96196778,7.29075549 6.33873562,7.5 5.66666667,7.5 C4.79221581,7.5 4.00054915,7.14555876 3.42749519,6.57250481 C2.85444124,5.99945085 2.5,5.20778419 2.5,4.33333333 C2.5,3.66145577 2.7091252,3.03838713 3.06609565,2.52588761 C3.3744166,2.08323379 3.79276718,1.72287144 4.28162134,1.48469416 L4.28162134,1.48469416 Z" id="Combined-Shape" fill="#FF0000"></path>
            </g>
            <g id="Group-13" transform="translate(12.000000, 5.000000) rotate(180.000000) translate(-12.000000, -5.000000) translate(7.000000, 0.000000)">
                <line x1="0.333333333" y1="9.66666667" x2="4.33333333" y2="5.66666667" id="Line-3" stroke-width="2" stroke-linecap="round"></line>
                <line x1="5.33333333" y1="6.66666667" x2="9.33333333" y2="2.66666667" id="Line-3" stroke-width="2" stroke-linecap="round"></line>
                <line x1="3.33333333" y1="4.66666667" x2="7.33333333" y2="0.666666667" id="Line-3" stroke-width="2" stroke-linecap="round"></line>
                <line x1="3.66666667" y1="0.333333333" x2="9.66666667" y2="6.33333333" id="Line-4" stroke-width="2" stroke-linecap="round"></line>
                <path d="M4.28162134,1.48469416 L8.51577176,5.71742203 C8.27767716,6.20652581 7.91729246,6.62510628 7.47455032,6.93359926 C6.96196778,7.29075549 6.33873562,7.5 5.66666667,7.5 C4.79221581,7.5 4.00054915,7.14555876 3.42749519,6.57250481 C2.85444124,5.99945085 2.5,5.20778419 2.5,4.33333333 C2.5,3.66145577 2.7091252,3.03838713 3.06609565,2.52588761 C3.3744166,2.08323379 3.79276718,1.72287144 4.28162134,1.48469416 L4.28162134,1.48469416 Z" id="Combined-Shape" fill="#FF0000"></path>
            </g>
        </g>
    </g>
</svg>
