<?xml version="1.0" standalone="no"?><!DOCTYPE svg PUBLIC "-//W3C//DTD SVG 1.1//EN" "http://www.w3.org/Graphics/SVG/1.1/DTD/svg11.dtd">
<svg class="icon" height="512" viewBox="0 0 1024 1024" version="1.1"
	xmlns="http://www.w3.org/2000/svg">
	<path d="M512.529561 312.621067c-27.15957 0-49.181119 22.021549-49.181119 49.182143s22.021549 49.181119 49.181119 49.181119c27.161616 0 49.183166-22.020526 49.183166-49.181119S539.691177 312.621067 512.529561 312.621067zM512.529561 542.127158c-18.129916 0-32.803103 14.6957-32.803103 32.804127l0 98.349959c0 18.10638 14.672164 32.804127 32.803103 32.804127 18.130939 0 32.779567-14.696724 32.779567-32.804127l0-98.349959C545.310152 556.822858 530.6605 542.127158 512.529561 542.127158zM925.360957 479.184617c-36.164664 0-65.582671-29.753651-65.582671-66.352197l0-96.489588c0-69.858044-56.145741-126.676098-125.163651-126.676098l-31.794124 0c-16.449647 0-29.801746 13.495362-29.801746 30.16195 0 16.642029 13.352099 30.16195 29.801746 30.16195l31.794124 0c36.141128 0 65.559135 29.753651 65.559135 66.352197l0 96.489588c0 38.615483 17.170055 73.2677 44.186362 96.514147-27.015284 23.245424-44.186362 57.875129-44.186362 96.513124l0 96.477308c0 36.597523-29.418007 66.375733-65.559135 66.375733l-31.794124 0c-16.449647 0-29.801746 13.495362-29.801746 30.16195 0 16.665565 13.352099 30.162974 29.801746 30.162974l31.794124 0c69.016887 0 125.163651-56.818053 125.163651-126.699634l0-96.477308c0-36.598546 29.418007-66.352197 65.582671-66.352197 16.449647 0 29.801746-13.495362 29.801746-30.16195C955.162704 492.704538 941.810604 479.184617 925.360957 479.184617zM224.887398 412.83242l0-96.489588c0-36.598546 29.393447-66.352197 65.559135-66.352197l31.795147 0c16.449647 0 29.801746-13.519921 29.801746-30.16195 0-16.666588-13.351076-30.16195-29.801746-30.16195l-31.795147 0c-69.016887 0-125.162628 56.818053-125.162628 126.676098l0 96.489588c0 36.598546-29.441543 66.352197-65.582671 66.352197-16.449647 0-29.80277 13.518898-29.80277 30.16195 0 16.665565 13.352099 30.16195 29.80277 30.16195 36.141128 0 65.582671 29.753651 65.582671 66.352197l0 96.477308c0 69.88158 56.145741 126.699634 125.162628 126.699634l31.795147 0c16.449647 0 29.801746-13.496385 29.801746-30.162974 0-16.666588-13.351076-30.16195-29.801746-30.16195l-31.795147 0c-36.165688 0-65.559135-29.779234-65.559135-66.375733l0-96.477308c0-38.639019-17.170055-73.268724-44.186362-96.513124C207.71632 486.101143 224.887398 451.447902 224.887398 412.83242z" />
</svg>